<?xml version="1.0" encoding="utf-8"?>
<!-- Generator: Adobe Illustrator 24.3.0, SVG Export Plug-In . SVG Version: 6.00 Build 0)  -->
<svg version="1.1" id="b4a83183-0e56-418f-b042-c525b5329012"
	 xmlns="http://www.w3.org/2000/svg" xmlns:xlink="http://www.w3.org/1999/xlink" x="0px" y="0px" viewBox="0 0 826.6 848.7"
	 style="enable-background:new 0 0 826.6 848.7;" xml:space="preserve">
<style type="text/css">
	.st0{fill:#CBCDDA;}
	.st1{opacity:5.000000e-02;enable-background:new    ;}
	.st2{opacity:0.1;fill:#FDED19;enable-background:new    ;}
	.st3{fill:#FFDC7F;}
	.st4{fill:#3F3D56;}
	.st5{opacity:0.1;fill:#180C16;enable-background:new    ;}
	.st6{fill:#ADD9AF;}
	.st7{fill:#68BD45;}
	.st8{fill:#346734;}
	.st9{fill:#006635;}
	.st10{fill:#7EC242;}
	.st11{fill:#FFB9B9;}
	.st12{fill:#4C4C78;}
	.st13{opacity:0.1;enable-background:new    ;}
	.st14{fill:#A7DDE7;}
	.st15{fill:#200D1A;}
</style>
<path class="st0" d="M676.9,234c0,0-15.5,8.9-10.7,21.5c0,0,16.1,4.8,22.6,16.7S746,327,746,327l36.9-18.5c0,0-12.9-17.2-53.5-29.1
	c0,0-24-25.7-32.3-30.5S676.9,234,676.9,234z"/>
<path class="st1" d="M676.9,234c0,0-15.5,8.9-10.7,21.5c0,0,16.1,4.8,22.6,16.7S746,327,746,327l36.9-18.5c0,0-12.9-17.2-53.5-29.1
	c0,0-24-25.7-32.3-30.5S676.9,234,676.9,234z"/>
<path class="st2" d="M141.3,804.4c-8,2-16.3-0.3-24.5-0.4S99,807.3,97,815.3c-2.7,10.7,9.8,18.7,20.5,21.4
	c41.5,10.3,85.3-3.1,127.7,2.4c17.9,2.3,35.2,7.9,53.2,9.3c41.1,3.1,81.2-16.5,122.4-14.3c20.6,1.1,40.6,7.6,61.3,8.7
	c49.3,2.5,98-26.4,146.3-16.1c13.6,2.9,26.4,8.9,39.9,12.4c34.2,8.7,70.1,1,104.5-6.8c6.8-1.5,15.1-4.6,15.9-11.5
	c0.9-7.7-7.9-12.5-15.2-14.9c-80.1-26.8-165.9-41-249.5-28.6c-19,2.8-38,7-57.2,6.7c-42.5-0.6-81.6-22.8-123.4-30.9
	c-79.1-15.4-158.3,20.5-230.9,55.5"/>
<path class="st3" d="M250.9,577.1h-24.2v204.8c0,0,156.4,50.7,308.4,0V577.1H250.9z"/>
<ellipse class="st4" cx="378.7" cy="578.2" rx="152" ry="23.1"/>
<ellipse class="st5" cx="378.7" cy="578.2" rx="152" ry="23.1"/>
<path class="st6" d="M555.4,332.3C517,474.1,385.7,561.8,385.7,561.8s-69.2-142-30.8-283.7C393.2,136.4,524.5,48.6,524.5,48.6
	S593.7,190.6,555.4,332.3z"/>
<path class="st7" d="M206.6,332.3c38.3,141.7,169.7,229.5,169.7,229.5s69.2-142,30.8-283.7S237.4,48.6,237.4,48.6
	S168.2,190.6,206.6,332.3z"/>
<path class="st8" d="M262.9,301.9C368.1,404.3,381,561.7,381,561.7s-157.7-8.6-262.9-111S0,190.9,0,190.9S157.7,199.5,262.9,301.9z"
	/>
<g>
	<path class="st8" d="M499,301.9C393.8,404.3,381,561.7,381,561.7s157.7-8.6,262.9-111s118.1-259.8,118.1-259.8
		S604.2,199.5,499,301.9z"/>
</g>
<circle class="st9" cx="380.9" cy="48.5" r="48.5"/>
<path class="st10" d="M90.7,391.6c3.4,12.5,15.4,20.1,15.4,20.1s6.4-12.6,2.9-25.1s-15.4-20.1-15.4-20.1S87.3,379.1,90.7,391.6z"/>
<path class="st10" d="M155,461c-3.7,12.4,2.4,25.2,2.4,25.2s12.1-7.3,15.8-19.7s-2.4-25.2-2.4-25.2S158.7,448.7,155,461z"/>
<path class="st10" d="M618.9,540.8c-9.1,9.2-9.7,23.3-9.7,23.3s14.1-0.8,23.2-10s9.7-23.3,9.7-23.3S628,531.5,618.9,540.8z"/>
<path class="st11" d="M773.4,742.3c0,0,1.8,26.2,4.8,29.2s-26.8,4.8-26.8,4.8l4.2-34H773.4z"/>
<path class="st1" d="M773.4,742.3c0,0,1.8,26.2,4.8,29.2s-26.8,4.8-26.8,4.8l4.2-34H773.4z"/>
<path class="st0" d="M780,762.6c0,0-4.2,0-19.1,7.7c0,0-10.1-1.8-14.3-16.1c0,0-12.5,21.5-20.9,22.6s-24.4,2.4-13.7,16.7
	s73.9,7.7,73.9,7.7S787.7,766.7,780,762.6z"/>
<path class="st1" d="M780,762.6c0,0-4.2,0-19.1,7.7c0,0-10.1-1.8-14.3-16.1c0,0-12.5,21.5-20.9,22.6s-24.4,2.4-13.7,16.7
	s73.9,7.7,73.9,7.7S787.7,766.7,780,762.6z"/>
<path class="st11" d="M771.1,782.8l-4.2,11.3l-27.4-7.7l1.6-11.2l0.4-2.7l1-7.5c0,0,23.2-6,23.2-3c0.3,2.5,0.8,4.9,1.5,7.3
	c1,3.7,2.2,7.8,3,10.6C770.7,781.6,771.1,782.8,771.1,782.8z"/>
<path class="st12" d="M756.1,627.4c-1.9,3.2-4,9.1-0.1,16.6c1.2,2.2,2.6,4.2,4.3,5.9c13.1,14.3,16.7,46.5,16.7,46.5v51.8l-8.9,0.7
	l-14.3,1.1l-21.5-88.2c0,0-12.5-64.4-6.6-75.7s11.3-82.2,11.3-82.2l4.9-5.1l11.7-12.2h34c2.7,1.9,5,4.5,6.6,7.4
	c5.7,9.4,10.8,29.1-4.8,65.3c-24.4,56.6-31.6,65.5-31.6,65.5C757.2,625.7,756.6,626.5,756.1,627.4z"/>
<path class="st1" d="M756.1,627.4c-1.9,3.2-4,9.1-0.1,16.6c1.2,2.2,2.6,4.2,4.3,5.9c13.1,14.3,16.7,46.5,16.7,46.5v51.8l-8.9,0.7
	l-14.3,1.1l-21.5-88.2c0,0-12.5-64.4-6.6-75.7s11.3-82.2,11.3-82.2l4.9-5.1l11.7-12.2h34c2.7,1.9,5,4.5,6.6,7.4
	c5.7,9.4,10.8,29.1-4.8,65.3c-24.4,56.6-31.6,65.5-31.6,65.5C757.2,625.7,756.6,626.5,756.1,627.4z"/>
<path class="st13" d="M767.2,769.2l-25.8,3.2l1-7.5c0,0,23.2-6,23.2-3C766,764.4,766.5,766.8,767.2,769.2z"/>
<path class="st12" d="M754.4,551c0,0,1.5,46.9,1.7,76.4c0.1,6.7,0,12.4-0.1,16.6c0,2.2-0.1,4.4-0.5,6.5c-1.8,5.4,1.8,17.3,1.8,17.3
	c14.9,39.3,10.7,73.9,10.7,73.9v26.2l-28.6,3.6c0,0,4.8-3.6-8.3-38.1c-7.5-19.9-9.2-39.3-9.2-52.3c-0.1-7.1-1.5-14.1-4.2-20.7
	c-0.8-2.2-1.3-4.5-1.5-6.9c-1.2-11.9-6.6-26.8-6.6-26.8s-14.3-42.3-17.9-73.3c-1.7-14.7-1.4-29.7,0.8-44.3c0.5-3.7,1.2-7.4,2.2-11.1
	c0,0,58.3-36.7,80.2-11.3c2.1,2.5,3.8,5.3,5,8.3c1.2,3,2.2,6.1,2.8,9.3C789.7,537.9,754.4,551,754.4,551z"/>
<circle class="st11" cx="752.6" cy="259.6" r="30.4"/>
<path class="st11" d="M735.9,278.7c0,0,12.5,35.2,0,53.6s39.9,12.5,39.9,12.5l20.3-24.4c0,0-23.8,0-25-41.7S735.9,278.7,735.9,278.7
	z"/>
<path class="st13" d="M796.1,501c-4.3,1.5-8.8,2.6-13.3,3.3c-7.4,1.1-16.2,1.2-21.3-3.3c-3-2.7-10.5-3-19.5-2.1
	c-18.9,1.8-44.5,8.9-49.4,10.3c0.5-3.7,1.2-7.4,2.2-11.1c0,0,58.3-36.7,80.2-11.3h12.7c2.7,1.9,5,4.5,6.6,7.4
	C795.4,498.8,796.1,501,796.1,501z"/>
<path class="st13" d="M771.1,782.8l-4.2,11.3l-27.4-7.7l1.6-11.2c4.7,10.4,12.7,11.8,12.7,11.8c8.7-4.5,13.7-6.4,16.4-7.2
	C770.7,781.6,771.1,782.8,771.1,782.8z"/>
<path class="st0" d="M772.8,779.8c0,0-4.2,0-19.1,7.7c0,0-10.1-1.8-14.3-16.1c0,0-12.5,21.5-20.9,22.6s-24.4,2.4-13.7,16.7
	s73.9,7.7,73.9,7.7S780.6,784,772.8,779.8z"/>
<path class="st11" d="M631.5,265.4c0,0,1.2-23.2,25.6-20.9c2.3,0.2,4,2.3,3.8,4.5c-0.1,0.5-0.2,1.1-0.5,1.6l-5,9.4L631.5,265.4z"/>
<path class="st14" d="M772.2,327.6c0,0-29.2-4.8-36.9-10.7c0,0-6,11.3-16.7,5.4s-35.8-5.4-35.8-5.4s-20.9-11.3-25-36.9
	c0,0-4.2-15.5-3-19.7c0,0-15.5-16.1-23.2,5.4c3,14.9,5.4,13.7,4.8,25.6l9.5,26.2c0,0,0.6,8.9,17.9,20.9s36.9,30.4,36.9,30.4
	s-10.4,5.7-6.6,31.6c4.7,31.7-2.4,76.9-2.4,76.9v29.2c0,0,59.6-17.3,69.7-8.3s34.6,0,34.6,0s-3-10.1-7.2-34.6s0.6-48.3,0.6-48.3
	s15.5-41.1,22.6-57.8s-5.4-39.3-17.9-47.7s-17.2-3.3-17.2-3.3S799.1,322.2,772.2,327.6z"/>
<path class="st13" d="M719.7,252.2c0,1.2,0.2,2.5,0.6,3.6c0.7,1.3,1.6,2.5,2.8,3.5c4.5,4.4,8.4,9.5,9.9,15.6c1.1,4.1,1,8.4,0.9,12.6
	c-0.3,17.1-1,35.6-11.5,49c-3.9,4.9-8.9,8.9-13.6,13.1c-0.7,0.5-1.2,1.1-1.4,1.9c-0.1,0.8,0,1.6,0.4,2.4c2.2,4.5,6.8,7.3,11.1,9.8
	c2,1.2,4.1,2.3,6.4,2.4c5.4,0.2,9-5.5,13.9-7.8c7.2-3.3,15.2,1.3,22.4,4.7c5.2,2.5,10.6,4.3,16.1,5.6c7.6,1.8,16.3,2.2,22.7-2.3
	c3.7-2.6,6.2-6.6,7.1-11.1c0.5-2.9,0.4-6.3,2.6-8.3c1.1-1,2.7-1.4,3.9-2.3c1.9-1.4,2.8-3.7,3.6-6l7.3-20.1c0.9-2.1,1.4-4.4,1.4-6.7
	c-0.4-4.8-4.8-8.3-9.3-10.2s-9.4-2.8-13.4-5.6c-6.7-4.8-8.7-13.7-9.3-21.9c-0.4-5.6-0.4-11.2,0.1-16.9c0.7-8.3,2.4-17.2-1.3-24.6
	c-3.9-8-12.8-12.1-21-15.5c-3.2-1.3-6.4-2.7-9.8-2.8c-3.6-0.2-7.1,1-10.6,2.2c-5.4,1.9-11,4.3-16.6,5.6c-3.2,0.7-6.6,0.2-9.6,1.3
	C714.6,227.7,719.7,243.2,719.7,252.2z"/>
<path class="st15" d="M719.7,251c0,1.2,0.2,2.5,0.6,3.6c0.7,1.3,1.6,2.5,2.8,3.5c4.5,4.4,8.4,9.5,9.9,15.6c1.1,4.1,1,8.4,0.9,12.6
	c-0.3,17.1-1,35.6-11.5,49c-3.9,4.9-8.9,8.9-13.6,13.1c-0.7,0.5-1.2,1.1-1.4,1.9c-0.1,0.8,0,1.6,0.4,2.4c2.2,4.5,6.8,7.3,11.1,9.8
	c2,1.2,4.1,2.3,6.4,2.4c5.4,0.2,9-5.5,13.9-7.8c7.2-3.3,15.2,1.3,22.4,4.7c5.2,2.5,10.6,4.3,16.1,5.6c7.6,1.8,16.3,2.2,22.7-2.3
	c3.7-2.6,6.2-6.6,7.1-11.1c0.5-2.9,0.4-6.3,2.6-8.3c1.1-1,2.7-1.4,3.9-2.3c1.9-1.4,2.8-3.7,3.6-6l7.3-20.1c0.9-2.1,1.4-4.4,1.4-6.7
	c-0.4-4.8-4.8-8.3-9.3-10.2s-9.4-2.8-13.4-5.6c-6.7-4.8-8.7-13.7-9.3-21.9c-0.4-5.6-0.4-11.2,0.1-16.9c0.7-8.3,2.4-17.2-1.3-24.6
	c-3.9-8-12.8-12.1-21-15.5c-3.2-1.3-6.4-2.7-9.8-2.8c-3.6-0.2-7.1,1-10.6,2.2c-5.4,1.9-11,4.3-16.6,5.6c-3.2,0.7-6.6,0.2-9.6,1.3
	C714.6,226.5,719.7,242,719.7,251z"/>
<path class="st1" d="M695.7,413.6c0,0,4.8-1.2,28.6-4.7s65.5,4.8,65.5,4.8"/>
<path class="st10" d="M40.7,511.6c3.4,12.5,15.4,20.1,15.4,20.1s6.4-12.6,2.9-25.1c-3.4-12.5-15.4-20.1-15.4-20.1
	S37.3,499.1,40.7,511.6z"/>
</svg>
